# xmcd CD database file
#
# Track frame offsets:
#	150
#	15860
#	30410
#	44786
#	61017
#	75472
#	86382
#	97902
#	115361
#	126114
#	141187
#	155258
#	177462
#	197028
#
# Disc length: 2844 seconds
#
# Revision: 0
# Processed by: cddbd v1.5.2PL0 Copyright (c) Steve Scherf et al.
# Submitted via: CDex 1.51
#
DISCID=a70b1a0e
DTITLE=Daniel Smith - Southside boogie
DYEAR=2006
DGENRE=Jazz
TTITLE0=Southside Boogie
TTITLE1=How Many More Years
TTITLE2=The Doctor's Orders
TTITLE3=C.C. Rider
TTITLE4=On The Outside
TTITLE5=Honey Dripper
TTITLE6=Oh Baby
TTITLE7=Whitsunday Blues
TTITLE8=Piet's Boogie Woogie
TTITLE9=Key To The Highway
TTITLE10=Rotten Row
TTITLE11=Two Jack Jump at Craig's Way Station
TTITLE12=How Long Blues
TTITLE13=Highway Boogie Woogie
EXTD=YEAR: 2006
EXTT0=
EXTT1=
EXTT2=
EXTT3=
EXTT4=
EXTT5=
EXTT6=
EXTT7=
EXTT8=
EXTT9=
EXTT10=
EXTT11=
EXTT12=
EXTT13=
PLAYORDER=
